<?xml version="1.0" encoding="iso-8859-1"?>
<!-- Generator: Adobe Illustrator 19.0.0, SVG Export Plug-In . SVG Version: 6.00 Build 0)  -->
<svg version="1.1" id="Capa_1" xmlns="http://www.w3.org/2000/svg" xmlns:xlink="http://www.w3.org/1999/xlink" x="0px" y="0px"
	 viewBox="0 0 511.999 511.999" style="enable-background:new 0 0 511.999 511.999;" xml:space="preserve">
<path style="fill:#00EED1;" d="M3.71,187.309c1.313-15.913,9.535-33.054,41.181-24.722c8.328,2.193,17.155,0.165,23.728-5.399
	c10.154-8.597,26.096-17.462,38.687-2.773c8.918,10.404,9.542,25.607,2.047,37.079c-12.394,18.972-39.306,45.769-85.854,27.274
	C10.757,213.706,2.582,200.972,3.71,187.309z"/>
<path style="fill:#00CCB3;" d="M109.353,191.5c7.495-11.471,6.871-26.676-2.047-37.078c-12.592-14.689-28.532-5.824-38.687,2.772
	c-6.573,5.565-15.399,7.592-23.728,5.399c-1.56-0.411-3.047-0.743-4.496-1.032c-9.094,14.274-17.064,33.848-15.719,57.666
	C70.499,236.806,97.064,210.311,109.353,191.5z"/>
<path style="fill:#FF3F62;" d="M4.399,252.902c-6.807-12.524-9.058-29.345,18.647-38.612c7.292-2.438,12.889-8.273,15.073-15.644
	c3.374-11.388,10.936-25.808,27.526-21.004c11.75,3.403,19.657,14.448,19.675,26.681c0.032,20.231-6.945,53.408-50.75,62.382
	C22.58,269.16,10.244,263.655,4.399,252.902z"/>
<path style="fill:#D80027;" d="M28.2,267.274c2.109,0.049,4.244-0.124,6.37-0.558c43.804-8.974,50.782-42.152,50.75-62.382
	c-0.006-4.165-0.946-8.182-2.622-11.816C58.304,196.931,32.222,214.337,28.2,267.274z"/>
<circle style="fill:#1D1D1F;" cx="137.509" cy="390.778" r="73.658"/>
<circle style="fill:#3E3D42;" cx="90.841" cy="326.485" r="90.841"/>
<path style="fill:#2D2D30;" d="M90.845,235.643c-5.268,0-10.43,0.454-15.453,1.315c-0.131,0.15-58.007,66.778-35.402,164.82
	c14.511,9.821,32.013,15.558,50.855,15.558c50.173,0,90.845-40.673,90.845-90.845C181.692,276.316,141.018,235.643,90.845,235.643z"
	/>
<path style="fill:#57565C;" d="M83.862,293.772c0,0,9.051,165.677,206.638,165.677s206.466-164.578,206.466-164.578L83.862,293.772z
	"/>
<path style="fill:#3E3D42;" d="M290.567,294.322l-206.705-0.55c0,0,9.051,165.677,206.638,165.677c0.023,0,0.044,0,0.066,0V294.322
	H290.567z"/>
<circle style="fill:#FFDAAA;" cx="114.824" cy="329.41" r="47.222"/>
<path style="fill:#FFC477;" d="M162.049,329.409c0-26.08-21.142-47.222-47.222-47.222c-3.92,0-7.724,0.486-11.366,1.387
	c-0.003,0.007-18.751,40.288-7.181,89.272c5.695,2.435,11.962,3.786,18.547,3.786C140.906,376.632,162.049,355.489,162.049,329.409z
	"/>
<circle style="fill:#FFDAAA;" cx="464.776" cy="329.41" r="47.222"/>
<path style="fill:#FFC477;" d="M417.555,329.409c0-26.08,21.142-47.222,47.222-47.222c3.92,0,7.724,0.486,11.366,1.387
	c0.003,0.007,18.751,40.288,7.181,89.272c-5.695,2.435-11.962,3.786-18.547,3.786C438.697,376.632,417.555,355.489,417.555,329.409z
	"/>
<path style="fill:#D1E7F8;" d="M484.1,220.076c0,106.885-63.293,273.444-193.533,273.444S97.034,326.962,97.034,220.076
	S183.681,26.543,290.567,26.543S484.1,113.191,484.1,220.076z"/>
<path style="fill:#B9D8F4;" d="M313.562,491.721C138.904,330.043,193.97,128.659,234.438,34.821
	C154.927,58.88,97.034,132.712,97.034,220.076c0,106.885,63.293,273.444,193.533,273.444
	C298.479,493.52,306.143,492.901,313.562,491.721z"/>
<path style="fill:#FF728B;" d="M264.709,270.737c3.104-2.84,5.062-6.911,5.062-11.449c0-8.579-6.955-15.533-15.533-15.533
	c-2.074,0-4.049,0.414-5.857,1.152c0.174-0.93,0.275-1.886,0.275-2.867c0-8.578-6.955-15.533-15.533-15.533
	c-4.733,0-8.963,2.123-11.812,5.461c-2.328-5.641-7.878-9.614-14.36-9.614c-6.211,0-11.555,3.653-14.04,8.92
	c-2.833-3.784-7.339-6.334-12.428-6.244c-16.455,0.291-15.504,16.174-15.485,16.493c-1.666-0.61-3.456-0.959-5.333-0.959
	c-8.579,0-15.533,6.955-15.533,15.533c0,3.564,1.214,6.839,3.233,9.46c-7.097,1.434-12.441,7.704-12.441,15.224
	c0,6.306,3.764,11.722,9.162,14.157c-2.897,2.822-4.651,6.759-4.702,11.122c-0.191,16.482,17.249,15.499,17.249,15.533
	c0,8.578,6.955,15.533,15.533,15.533c3.139,0,6.055-0.939,8.498-2.539c2.731,4.456,7.631,7.438,13.239,7.438
	c7.066,0,13.019-4.722,14.904-11.18c2.739,2.42,6.336,4.153,10.269,3.9c16.788-1.076,15.511-15.913,15.504-16.105
	c1.316,0.362,2.694,0.571,4.124,0.571c8.579,0,15.533-6.955,15.533-15.533c0-2.134-0.432-4.166-1.21-6.017
	c0.401,0.031,16.215,0.03,16.744-15.472C269.926,277.651,267.813,273.578,264.709,270.737z"/>
<path style="fill:#FF3F62;" d="M192.912,231.272c-2.833-3.784-7.339-6.334-12.428-6.244c-16.455,0.291-15.504,16.174-15.485,16.493
	c-1.665-0.61-3.456-0.96-5.333-0.96c-8.579,0-15.533,6.955-15.533,15.533c0,3.564,1.214,6.839,3.233,9.46
	c-7.097,1.434-12.441,7.704-12.441,15.224c0,6.307,3.764,11.723,9.163,14.157c-2.897,2.822-4.651,6.759-4.702,11.122
	c-0.191,16.482,17.249,15.499,17.249,15.533c0,8.578,6.955,15.533,15.533,15.533c3.139,0,6.055-0.939,8.498-2.539
	c2.731,4.456,7.631,7.438,13.239,7.438c7.066,0,13.019-4.721,14.904-11.18C208.807,330.843,193.851,278.999,192.912,231.272z"/>
<path style="fill:#57565C;" d="M208.801,323.969c-22.769,8.062-47.762-3.86-55.824-26.628c-8.062-22.769,3.86-47.762,26.628-55.824
	c22.769-8.062,67.683-3.194,75.745,19.574C263.413,283.86,231.57,315.907,208.801,323.969z"/>
<path style="fill:#3E3D42;" d="M207.102,324.531c-3.696-14.259-12.255-50.479-13.942-86c-4.977,0.594-9.602,1.594-13.553,2.993
	c-22.769,8.062-34.69,33.055-26.629,55.823C160.839,319.552,184.802,331.433,207.102,324.531z"/>
<path style="fill:#FF728B;" d="M311.362,282.187c0.528,15.502,16.343,15.503,16.744,15.472c-0.779,1.851-1.21,3.884-1.21,6.017
	c0,8.578,6.955,15.533,15.533,15.533c1.43,0,2.808-0.209,4.124-0.571c-0.007,0.191-1.283,15.029,15.504,16.105
	c3.934,0.252,7.531-1.48,10.269-3.9c1.884,6.457,7.838,11.18,14.904,11.18c5.608,0,10.508-2.982,13.239-7.438
	c2.443,1.601,5.359,2.539,8.498,2.539c8.579,0,15.533-6.955,15.533-15.533c0-0.034,17.44,0.949,17.249-15.533
	c-0.05-4.363-1.805-8.3-4.702-11.122c5.398-2.433,9.162-7.85,9.162-14.157c0-7.519-5.345-13.79-12.441-15.224
	c2.019-2.621,3.233-5.896,3.233-9.46c0-8.578-6.955-15.533-15.533-15.533c-1.877,0-3.667,0.35-5.332,0.959
	c0.02-0.319,0.97-16.202-15.485-16.493c-5.09-0.09-9.595,2.46-12.428,6.244c-2.486-5.267-7.829-8.92-14.04-8.92
	c-6.482,0-12.03,3.972-14.36,9.614c-2.849-3.338-7.079-5.461-11.812-5.461c-8.579,0-15.533,6.955-15.533,15.533
	c0,0.981,0.102,1.937,0.275,2.867c-1.809-0.738-3.784-1.152-5.857-1.152c-8.579,0-15.533,6.955-15.533,15.533
	c0,4.539,1.958,8.609,5.062,11.449C313.32,273.578,311.207,277.651,311.362,282.187z"/>
<g>
	<path style="fill:#57565C;" d="M372.332,323.969c22.769,8.062,47.762-3.86,55.824-26.628c8.062-22.769-3.86-47.762-26.628-55.824
		c-22.769-8.062-67.683-3.194-75.745,19.574C317.72,283.86,349.563,315.907,372.332,323.969z"/>
	<path style="fill:#57565C;" d="M311.37,350.746c0,11.49-9.314,20.803-20.803,20.803s-20.803-9.314-20.803-20.803
		s9.314-38.252,20.803-38.252C302.056,312.495,311.37,339.257,311.37,350.746z"/>
</g>
<path style="fill:#3E3D42;" d="M291.495,350.746c0-7.507,3.976-21.529,9.937-30.351c-3.163-4.681-6.884-7.9-10.866-7.9
	c-11.49,0-20.803,26.762-20.803,38.252s9.314,20.803,20.803,20.803c3.988,0,7.701-1.142,10.866-3.087
	C295.479,364.802,291.495,358.248,291.495,350.746z"/>
<circle style="fill:#B6E892;" cx="202.348" cy="282.187" r="18.543"/>
<path style="fill:#A4E276;" d="M195.528,264.938c-6.862,2.72-11.723,9.401-11.723,17.232c0,9.977,7.885,18.09,17.76,18.504
	C199.413,290.289,197.189,277.971,195.528,264.938z"/>
<circle style="fill:#B6E892;" cx="381.837" cy="282.187" r="18.543"/>
<path style="fill:#FF728B;" d="M290.567,404.515c0,0-28.677-16.627-42.222,17.911c0.035,0.008,42.222,5.963,42.222,5.963
	s42.187-5.953,42.222-5.963C319.244,387.887,290.567,404.515,290.567,404.515z"/>
<path style="fill:#FF3F62;" d="M248.345,422.425c0,0-7.044,37.025,42.155,37.025s42.288-37.025,42.288-37.025l-42.222,5.963
	L248.345,422.425z"/>
<path style="fill:#57565C;" d="M394.134,397.531c-2.115-3.708-6.836-4.997-10.539-2.883c-0.948,0.541-1.911,1.051-2.867,1.574
	l-1.201-3.804c-1.286-4.069-5.622-6.328-9.695-5.042c-4.068,1.285-6.326,5.625-5.042,9.694l1.924,6.095
	c-3.38,1.499-6.8,2.898-10.259,4.193l-3.958-12.533c-1.286-4.069-5.622-6.328-9.695-5.042c-4.068,1.285-6.326,5.625-5.042,9.694
	l4.005,12.684c-16.604,4.706-33.842,7.153-51.2,7.153c-17.358,0-34.597-2.447-51.2-7.153l4.005-12.684
	c1.285-4.069-0.973-8.409-5.042-9.694c-4.071-1.285-8.409,0.973-9.695,5.042l-3.958,12.533c-3.458-1.295-6.879-2.694-10.259-4.193
	l1.924-6.095c1.285-4.069-0.972-8.409-5.042-9.694c-4.072-1.284-8.408,0.972-9.695,5.042l-1.201,3.804
	c-0.956-0.523-1.919-1.033-2.867-1.574c-3.708-2.114-8.425-0.823-10.539,2.883c-2.115,3.707-0.823,8.425,2.883,10.539
	c1.91,1.09,3.837,2.147,5.779,3.173l-1.639,5.19c-1.285,4.069,0.972,8.409,5.042,9.694c0.775,0.244,7.67,1.548,9.695-5.042
	l0.984-3.116c3.391,1.469,6.812,2.862,10.274,4.142l-4.092,12.959c-1.285,4.069,0.972,8.409,5.042,9.694
	c0.775,0.244,7.449,1.616,9.695-5.042l4.05-12.824c18.106,5.176,36.914,7.865,55.855,7.865c18.941,0,37.749-2.69,55.855-7.865
	l4.05,12.824c2.796,7.366,8.92,5.286,9.695,5.042c4.068-1.285,6.326-5.625,5.042-9.694l-4.092-12.959
	c3.462-1.281,6.883-2.674,10.274-4.142l0.984,3.116c2.434,7.302,8.92,5.286,9.695,5.042c4.068-1.285,6.326-5.625,5.042-9.694
	l-1.639-5.19c1.942-1.025,3.869-2.083,5.779-3.173C394.957,405.956,396.249,401.237,394.134,397.531z"/>
<path style="fill:#00CCB3;" d="M143.613,213.687c-2.359-3.555-1.391-8.351,2.165-10.71c1.214-0.806,30.163-19.691,70.033-16.831
	c15.542,1.117,27.398-2.095,33.386-9.043c3.569-4.14,4.94-9.541,3.761-14.818c-1.296-5.807-7.413-7.935-12.258-7.994
	c-0.067-0.001-0.135-0.001-0.202-0.001c-4.892,0-11.033,2.13-12.537,8.178c-1.03,4.141-5.222,6.659-9.363,5.633
	c-4.141-1.03-6.663-5.222-5.633-9.363c2.971-11.944,13.995-19.9,27.505-19.9c0.139,0,0.279,0.001,0.417,0.002
	c13.597,0.165,24.51,8.234,27.154,20.08c2.253,10.092-0.35,20.398-7.14,28.273c-6.55,7.598-19.877,16.255-46.197,14.367
	c-34.655-2.488-60.112,14.152-60.381,14.293C149.62,218.322,145.102,215.929,143.613,213.687z"/>
<path style="fill:#00AA95;" d="M194.777,186.556c-28.658,3.141-48.012,15.766-48.999,16.421c-3.555,2.36-4.525,7.155-2.165,10.71
	c1.488,2.241,6.007,4.635,10.71,2.165c0.211-0.111,15.882-10.344,39.322-13.577C193.926,196.984,194.307,191.743,194.777,186.556z"
	/>
<path style="fill:#00CCB3;" d="M426.825,215.863L426.825,215.863c-0.257-0.168-25.975-16.776-60.396-14.303
	c-26.317,1.886-39.648-6.77-46.197-14.367c-6.79-7.877-9.392-18.182-7.141-28.273c2.643-11.846,13.556-19.917,27.154-20.08
	c0.139-0.001,0.279-0.002,0.417-0.002c13.511,0,24.534,7.955,27.505,19.9c1.03,4.141-1.492,8.333-5.633,9.363
	c-4.143,1.027-8.333-1.492-9.363-5.633c-1.504-6.046-7.645-8.178-12.537-8.178c-0.067,0-0.135,0-0.202,0.001
	c-4.845,0.059-10.963,2.188-12.258,7.994c-1.179,5.278,0.194,10.678,3.762,14.818c5.988,6.948,17.842,10.161,33.386,9.043
	c39.858-2.862,68.82,16.027,70.032,16.831c3.555,2.36,4.525,7.155,2.165,10.71C436.031,215.929,432.238,219.22,426.825,215.863z"/>
<path style="fill:#FFE477;" d="M304.124,224.327c0,7.487-6.07,13.558-13.558,13.558c-7.487,0-13.557-6.07-13.557-13.558
	c0-7.488,6.07-33.254,13.557-33.254C298.054,191.073,304.124,216.839,304.124,224.327z"/>
<path style="fill:#57565C;" d="M496.964,294.869c0.001,0,0.001,0.001,0.002,0.002l0.038,0.022c0,0,37.475-137.627-38.449-221.405
	c-61.131-67.454-132.719-56.72-158.298-49.974c-6.354,1.675-13.017,1.675-19.372,0c-25.579-6.745-97.172-17.48-158.302,49.974
	c-75.923,83.777-38.722,220.282-38.721,220.286c5.549-4.825,12.229-8.377,19.598-10.199c0,0,5.887-161.435,134.529-194.942
	c11.007-2.867,22.722-0.614,32.06,5.88c3.508,2.439,7.228,5.008,10.523,7.275c6.026,4.146,13.972,4.146,19.998-0.001
	c3.328-2.291,7.091-4.888,10.629-7.349c9.338-6.495,21.055-8.65,32.059-5.774c128.528,33.602,134.346,195.289,134.346,195.289
	S487.669,286.244,496.964,294.869z"/>
<path style="fill:#3E3D42;" d="M241.811,18.48c-33.298-0.132-78.574,10.142-119.228,55.002
	C46.66,157.26,83.861,293.764,83.862,293.768c5.549-4.825,12.229-8.377,19.598-10.199c0,0,5.065-138.748,108.308-185.681
	c0.002-0.001,0.005-0.002,0.007-0.003C221.114,65.656,232.394,38.419,241.811,18.48L241.811,18.48z"/>
<g>
</g>
<g>
</g>
<g>
</g>
<g>
</g>
<g>
</g>
<g>
</g>
<g>
</g>
<g>
</g>
<g>
</g>
<g>
</g>
<g>
</g>
<g>
</g>
<g>
</g>
<g>
</g>
<g>
</g>
</svg>
