<svg id="Layer_3" enable-background="new 0 0 64 64" height="512" viewBox="0 0 64 64" width="512" xmlns="http://www.w3.org/2000/svg"><path d="m55 30c3.866 0 7-3.134 7-7s-3.134-7-7-7c-.36 0-.71.036-1.056.088-.453-3.988-3.835-7.088-7.944-7.088-1.012 0-1.976.195-2.866.538-1.772-4.416-6.085-7.538-11.134-7.538s-9.362 3.122-11.134 7.538c-.89-.343-1.854-.538-2.866-.538-4.109 0-7.491 3.1-7.944 7.088-.346-.052-.696-.088-1.056-.088-3.866 0-7 3.134-7 7s3.134 7 7 7z" fill="#4d5d7a"/><g fill="#8892a0"><path d="m20 24c13.95 0 25.746-5.946 29.637-14.123-1.091-.559-2.326-.877-3.637-.877-1.012 0-1.976.195-2.866.538-1.772-4.416-6.085-7.538-11.134-7.538s-9.362 3.122-11.134 7.538c-.89-.343-1.854-.538-2.866-.538-4.109 0-7.491 3.1-7.944 7.088-.346-.052-.696-.088-1.056-.088-2.982 0-5.521 1.867-6.53 4.494 4.987 2.21 11.023 3.506 17.53 3.506z"/><path d="m27 41c0 1.71-1.431 3.086-3.161 2.996-1.623-.085-2.839-1.541-2.839-3.166 0-1.198.325-2.373.942-3.4l2.058-3.43 2.058 3.431c.617 1.027.942 2.202.942 3.399z"/><path d="m35 48c0 1.71-1.431 3.086-3.161 2.996-1.623-.085-2.839-1.541-2.839-3.166 0-1.198.325-2.373.942-3.4l2.058-3.43 2.058 3.431c.617 1.027.942 2.202.942 3.399z"/><path d="m27 55c0 1.71-1.431 3.086-3.161 2.996-1.623-.085-2.839-1.541-2.839-3.166 0-1.198.325-2.373.942-3.4l2.058-3.43 2.058 3.431c.617 1.027.942 2.202.942 3.399z"/><path d="m43 41c0 1.71-1.431 3.086-3.161 2.996-1.623-.085-2.839-1.541-2.839-3.166 0-1.198.325-2.373.942-3.4l2.058-3.43 2.058 3.431c.617 1.027.942 2.202.942 3.399z"/><path d="m43 55c0 1.71-1.431 3.086-3.161 2.996-1.623-.085-2.839-1.541-2.839-3.166 0-1.198.325-2.373.942-3.4l2.058-3.43 2.058 3.431c.617 1.027.942 2.202.942 3.399z"/></g><path d="m55 31h-46c-4.411 0-8-3.589-8-8s3.589-8 8-8c.382 0 .767.027 1.143.081l-.285 1.98c-.283-.04-.571-.061-.858-.061-3.309 0-6 2.691-6 6s2.691 6 6 6h46c3.309 0 6-2.691 6-6s-2.691-6-6-6c-.287 0-.575.021-.857.062l-.285-1.98c.375-.055.76-.082 1.142-.082 4.411 0 8 3.589 8 8s-3.589 8-8 8z"/><path d="m21.788 9.902-1.855-.746c1.991-4.955 6.727-8.156 12.067-8.156 5.236 0 9.938 3.116 11.978 7.939l-1.842.779c-1.727-4.08-5.705-6.718-10.136-6.718-4.519 0-8.526 2.709-10.212 6.902z"/><path d="m25.025 22.626-1.561-1.252c1.005-1.252 1.536-2.765 1.536-4.374 0-3.859-3.141-7-7-7s-7 3.141-7 7c0 1.609.531 3.122 1.535 4.374l-1.561 1.252c-1.273-1.589-1.974-3.587-1.974-5.626 0-4.963 4.037-9 9-9s9 4.037 9 9c0 2.039-.701 4.037-1.975 5.626z"/><path d="m53.025 22.626-1.561-1.252c1.005-1.252 1.536-2.765 1.536-4.374 0-3.859-3.141-7-7-7s-7 3.141-7 7h-2c0-4.963 4.037-9 9-9s9 4.037 9 9c0 2.039-.701 4.037-1.975 5.626z"/><path d="m24.002 45c-.071 0-.143-.002-.215-.005-2.124-.111-3.787-1.941-3.787-4.165 0-1.378.375-2.731 1.084-3.914l2.059-3.431c.361-.602 1.354-.602 1.715 0l2.059 3.431c.708 1.183 1.083 2.536 1.083 3.914v.17c0 1.092-.454 2.149-1.246 2.901-.752.713-1.722 1.099-2.752 1.099zm-.002-9.057-1.201 2.002c-.523.871-.799 1.869-.799 2.885 0 1.141.849 2.112 1.892 2.167.562.031 1.084-.165 1.485-.547s.623-.896.623-1.45v-.17c0-1.016-.276-2.014-.799-2.885z"/><path d="m32.002 52c-.071 0-.143-.002-.215-.005-2.124-.111-3.787-1.941-3.787-4.165 0-1.378.375-2.731 1.084-3.914l2.059-3.431c.361-.602 1.354-.602 1.715 0l2.059 3.431c.708 1.183 1.083 2.536 1.083 3.914v.17c0 1.092-.454 2.149-1.246 2.901-.752.713-1.722 1.099-2.752 1.099zm-.002-9.057-1.201 2.002c-.523.871-.799 1.869-.799 2.885 0 1.141.849 2.112 1.892 2.167.563.031 1.083-.165 1.485-.547.401-.382.623-.896.623-1.45v-.17c0-1.016-.276-2.014-.799-2.885z"/><path d="m24.002 59c-.071 0-.143-.002-.215-.005-2.124-.111-3.787-1.941-3.787-4.165 0-1.378.375-2.731 1.084-3.914l2.059-3.431c.361-.602 1.354-.602 1.715 0l2.059 3.431c.708 1.183 1.083 2.536 1.083 3.914v.17c0 1.092-.454 2.149-1.246 2.901-.752.713-1.722 1.099-2.752 1.099zm-.002-9.057-1.201 2.002c-.523.871-.799 1.869-.799 2.885 0 1.141.849 2.112 1.892 2.167.562.03 1.084-.165 1.485-.547s.623-.896.623-1.45v-.17c0-1.016-.276-2.014-.799-2.885z"/><path d="m40.002 45c-.071 0-.143-.002-.215-.005-2.124-.111-3.787-1.941-3.787-4.165 0-1.378.375-2.731 1.084-3.914l2.059-3.431c.361-.602 1.354-.602 1.715 0l2.059 3.431c.708 1.183 1.083 2.536 1.083 3.914v.17c0 1.092-.454 2.149-1.246 2.901-.752.713-1.722 1.099-2.752 1.099zm-.002-9.057-1.201 2.002c-.523.871-.799 1.869-.799 2.885 0 1.141.849 2.112 1.892 2.167.564.031 1.084-.165 1.485-.547s.623-.896.623-1.45v-.17c0-1.016-.276-2.014-.799-2.885z"/><path d="m40.002 59c-.071 0-.143-.002-.215-.005-2.124-.111-3.787-1.941-3.787-4.165 0-1.378.375-2.731 1.084-3.914l2.059-3.431c.361-.602 1.354-.602 1.715 0l2.059 3.431c.708 1.183 1.083 2.536 1.083 3.914v.17c0 1.092-.454 2.149-1.246 2.901-.752.713-1.722 1.099-2.752 1.099zm-.002-9.057-1.201 2.002c-.523.871-.799 1.869-.799 2.885 0 1.141.849 2.112 1.892 2.167.564.03 1.084-.165 1.485-.547s.623-.896.623-1.45v-.17c0-1.016-.276-2.014-.799-2.885z"/><path d="m9 45h2v18h-2z"/><path d="m10 52c-.256 0-.512-.098-.707-.293l-4-4 1.414-1.414 3.293 3.293 3.293-3.293 1.414 1.414-4 4c-.195.195-.451.293-.707.293z"/><path d="m13.293 61.707-3.293-3.293-3.293 3.293-1.414-1.414 4-4c.391-.391 1.023-.391 1.414 0l4 4z"/><path d="m1 53h18v2h-18z"/><path d="m3.707 58.707-1.414-1.414 3.293-3.293-3.293-3.293 1.414-1.414 4 4c.391.391.391 1.023 0 1.414z"/><path d="m16.293 58.707-4-4c-.391-.391-.391-1.023 0-1.414l4-4 1.414 1.414-3.293 3.293 3.293 3.293z"/><path d="m53 33h2v18h-2z"/><path d="m54 40c-.256 0-.512-.098-.707-.293l-4-4 1.414-1.414 3.293 3.293 3.293-3.293 1.414 1.414-4 4c-.195.195-.451.293-.707.293z"/><path d="m57.293 49.707-3.293-3.293-3.293 3.293-1.414-1.414 4-4c.391-.391 1.023-.391 1.414 0l4 4z"/><path d="m45 41h18v2h-18z"/><path d="m47.707 46.707-1.414-1.414 3.293-3.293-3.293-3.293 1.414-1.414 4 4c.391.391.391 1.023 0 1.414z"/><path d="m60.293 46.707-4-4c-.391-.391-.391-1.023 0-1.414l4-4 1.414 1.414-3.293 3.293 3.293 3.293z"/></svg>